<?xml version="1.0" encoding="UTF-8"?>
<svg id="Layer_1" data-name="Layer 1" xmlns="http://www.w3.org/2000/svg" viewBox="0 0 250 250">
  <defs>
    <style>
      .cls-1 {
        fill: #fff;
      }
    </style>
  </defs>
  <path class="cls-1" d="M215.32,121.11c3.19,0,5.89-2.42,6.21-5.6.91-9.1.33-16.57-.19-20.64-.27-2.13.63-4.23,2.35-5.51l24.48-18.22c2.63-1.96,2.38-5.98-.48-7.59-10.65-5.96-26.27-14.03-31.47-19.23-20.77-20.77-41.56-23.06-57.21-20.12-12.41,2.33-23.73,8.63-32.65,17.55L54.22,113.89c-2.66,2.66-.78,7.22,2.99,7.22h158.11ZM177.28,46.28c8.4-1.59,15.64,5.64,14.04,14.04-.89,4.7-4.68,8.48-9.37,9.37-8.41,1.59-15.64-5.64-14.04-14.04.89-4.7,4.68-8.48,9.37-9.37Z"/>
  <rect class="cls-1" y="131.32" width="222.74" height="42.65" rx="11.83" ry="11.83"/>
  <rect class="cls-1" x="74.71" y="184.18" width="148.03" height="42.65" rx="11.83" ry="11.83"/>
</svg>