<?xml version="1.0" encoding="UTF-8"?>
<svg id="Layer_1" data-name="Layer 1" xmlns="http://www.w3.org/2000/svg" viewBox="0 0 250 250">
  <defs>
    <style>
      .cls-1 {
        fill: #fff;
      }

      .cls-2 {
        fill: #2f583c;
      }
    </style>
  </defs>
  <rect class="cls-2" x=".98" width="250" height="250" rx="78.9" ry="78.9"/>
  <path class="cls-1" d="M190.7,116.71c2.4,0,4.42-1.82,4.66-4.2.68-6.83.25-12.43-.14-15.49-.2-1.6.47-3.17,1.76-4.13l18.37-13.67c1.98-1.47,1.79-4.49-.36-5.69-7.99-4.47-19.72-10.53-23.62-14.43-15.58-15.58-31.19-17.3-42.93-15.1-9.31,1.75-17.81,6.47-24.51,13.17l-54.13,54.13c-2,2-.58,5.42,2.24,5.42h118.66ZM162.16,60.55c6.31-1.2,11.74,4.23,10.54,10.54-.67,3.52-3.51,6.37-7.03,7.03-6.31,1.2-11.74-4.23-10.54-10.54.67-3.52,3.51-6.37,7.03-7.03Z"/>
  <rect class="cls-1" x="29.11" y="127.33" width="167.16" height="32.01" rx="8.88" ry="8.88"/>
  <rect class="cls-1" x="85.17" y="169.96" width="111.09" height="32.01" rx="8.88" ry="8.88"/>
</svg>